<svg xmlns="http://www.w3.org/2000/svg" height="1336" width="1336"><defs><clipPath id="a"><path d="M0 1002h1002V0H0z"/></clipPath></defs><g clip-path="url(#a)" transform="matrix(1.33333 0 0 -1.33333 0 1336)" fill-rule="evenodd"><path d="M79.373 469.324c0-15.653-16.496-28.342-36.844-28.342-20.349 0-36.845 12.689-36.845 28.342v340.102c0 15.653 16.496 28.342 36.845 28.342 20.348 0 36.844-12.69 36.844-28.342z" fill="#eb008b"/><path d="M232.197 339.285c0-15.653-16.496-28.342-36.844-28.342-20.349 0-36.845 12.689-36.845 28.342v583.508c0 15.653 16.496 28.342 36.845 28.342 20.348 0 36.844-12.69 36.844-28.342z" fill="#de2183"/><path d="M385.02 189.24c0-15.653-16.495-28.342-36.843-28.342-20.35 0-36.845 12.689-36.845 28.342v686.873c0 15.653 16.496 28.342 36.845 28.342 20.348 0 36.844-12.69 36.844-28.342zM537.844 79.207c0-15.653-16.496-28.342-36.844-28.342-20.349 0-36.845 12.689-36.845 28.342v730.219c0 15.653 16.496 28.342 36.845 28.342 20.348 0 36.844-12.69 36.844-28.342zM690.668 189.24c0-15.653-16.496-28.342-36.844-28.342-20.349 0-36.845 12.689-36.845 28.342v686.873c0 15.653 16.496 28.342 36.845 28.342 20.348 0 36.844-12.69 36.844-28.342zm152.824 150.045c0-15.653-16.496-28.342-36.844-28.342-20.35 0-36.845 12.689-36.845 28.342v583.508c0 15.653 16.496 28.342 36.845 28.342 20.348 0 36.844-12.69 36.844-28.342zm152.823 130.039c0-15.653-16.496-28.342-36.844-28.342-20.349 0-36.845 12.689-36.845 28.342v340.102c0 15.653 16.496 28.342 36.845 28.342 20.348 0 36.844-12.69 36.844-28.342z" fill="#eb008b"/></g></svg>